# xmcd
#
# Track frame offsets:
#	150
#	16260
#	30219
#	48222
#	67918
#	80510
#	99206
#	115361
#	132336
#	152093
#	170334
#	183809
#	199712
#	217703
#	232916
#
# Disc length: 3330 seconds
#
# Revision: 0
# Processed by: cddbd v1.5.2PL0 Copyright (c) Steve Scherf et al.
# Submitted via: dBpowerAMP V4.0
#
DISCID=a90d000f
DTITLE=Gary Allan - Greatest Hits
DYEAR=2007
DGENRE=Country
TTITLE0=A Feelin' Like That
TTITLE1=Right Where I Need To Be
TTITLE2=Songs About Rain
TTITLE3=Smoke Rings In The Dark
TTITLE4=Her Man
TTITLE5=Best I Ever Had
TTITLE6=Nothing On But The Radio
TTITLE7=Man To Man
TTITLE8=The One
TTITLE9=Lovin' You Against My Will
TTITLE10=It Would Be You
TTITLE11=Man Of Me
TTITLE12=Tough Little Boys
TTITLE13=As The Crow Flies
TTITLE14=Life Ain't Always Beautiful
EXTD=
EXTT0=
EXTT1=
EXTT2=
EXTT3=
EXTT4=
EXTT5=
EXTT6=
EXTT7=
EXTT8=
EXTT9=
EXTT10=
EXTT11=
EXTT12=
EXTT13=
EXTT14=
PLAYORDER=
